<svg xmlns="http://www.w3.org/2000/svg" viewBox="0 0 640 512"><path d="M238.8 338.6h-24.3v-14c-9.2 10.5-17 15.9-25.5 15.9-15.2 0-17.9-13.5-17.9-28.6V209.6h24.3v95.8c0 7.7-1.2 13.8 5.2 13.8 4.6 0 8.8-4 14-11.3v-98.3h24.3v129zm-85.5-40.9c0 13.7-2.3 23.2-7.2 29.6-6.5 8.8-17.1 13.5-27.3 13.5s-20.7-4.7-27.1-13.5c-5-6.5-7.3-15.9-7.3-29.6v-45.9c0-13.8 2.7-24.2 7.6-30.8 6.5-8.8 15.3-12.4 26.8-12.4 10.2 0 20.4 3.6 26.8 12.4 4.9 6.5 7.7 16.9 7.7 30.7v46zM129 249.2c1.3-12.8-2.7-18.8-10.2-18.8-7.5 0-11.5 6-10.2 18.8v51.1c-1.3 12.8 2.7 19.1 10.2 19.1 7.5 0 11.5-6.3 10.2-19.1v-51.1zm-39.6-83H62.6l-17.8 67.3-17.9-67.3H0c5.5 16.1 31.9 102.2 31.9 102.2v70.2h25.5v-70.2l32-102.2zm483.5 63.9c-12.6 0-11 9.4-11 29.3h21.7c.1-19.4 1.7-29.3-10.7-29.3zm63.2 101.7s-3.7 26.2-15.2 37.7c-14.5 15.1-30.8 15.2-38.2 16.1-53.4 3.8-133.5 4-133.5 4s-99.2-.9-129.7-3.8c-8.5-1.6-27.5-1.1-42.1-16.2-11.4-11.5-15.2-37.7-15.2-37.7-5.3-42.3-5.2-109.5 0-151.7 0 0 3.7-26.2 15.2-37.7 14.5-15.1 30.8-15.2 38.2-16.1 53.4-3.8 133.4-3.8 133.4-3.8h.2s80.1 0 133.4 3.8c7.5.9 23.7 1 38.2 16.1 11.4 11.5 15.2 37.7 15.2 37.7 5.3 42.2 5.3 109.4.1 151.6zM342.3 191.7h28.1v-24.3h-80.5v24.2h26.8v146.9h25.5V191.7zm91.9 19.2H410V308c-5.1 7.2-9.3 11.3-14 11.3-6.4 0-5.2-6.1-5.2-13.8V211h-24.3v100.9c0 15.2 2.8 28.6 17.9 28.6 8.5 0 16.3-5.3 25.5-15.9v14h24.3V210.9zm88.2 38.3c0-18.8-2.8-40.4-21.6-40.4-8.5 0-17 5.2-24.4 14.4v-55.8h-23v171.1h23v-12.9c7.7 9.6 16.2 14.5 24.4 14.5 19.9 0 21.6-20.2 21.6-40v-50.9zm78-26.8c-6.5-8.7-15.7-13.4-27.3-13.4-20 0-35.5 13-35.5 44v44.7c0 28.8 15.2 42.5 36 42.5 12.1 0 21.6-4.6 28-13.8 6.1-8.8 6.2-18.1 6.2-28.9v-3.6h-24.3c0 11.4 2.1 25.3-10.5 25.3-13.5 0-11.2-15.7-11.2-40.7h46c.2-27.1 1.6-44.1-7.4-56.1zm-112 7.7c-3.8 0-8.2 2-12 5.8v77.5c3.9 3.9 8.3 5.8 12.1 5.8 6.7 0 9.7-4.9 9.7-17.7v-54.9c-.1-12.7-3.1-16.5-9.8-16.5z"/></svg>