<svg xmlns="http://www.w3.org/2000/svg" xmlns:xlink="http://www.w3.org/1999/xlink" version="1.1" x="0px" y="0px" viewBox="0 0 100 125" style="enable-background:new 0 0 100 100;" xml:space="preserve"><path d="M39.665,43.38c0.044,0.006,0.088,0.009,0.132,0.009c0.229,0,0.454-0.079,0.634-0.227c0.214-0.176,0.346-0.432,0.364-0.708  c0.024-0.381,0.572-9.374-2.473-13.164c-1.181-1.469-2.862-2.39-4.735-2.594c-1.877-0.203-3.714,0.334-5.183,1.514  c-1.47,1.181-2.392,2.862-2.596,4.736c-0.204,1.873,0.334,3.714,1.515,5.183C30.532,42.123,39.293,43.331,39.665,43.38z   M27.797,33.162c0.146-1.342,0.807-2.547,1.859-3.393c0.907-0.728,2.011-1.115,3.157-1.115c0.185,0,0.37,0.01,0.557,0.031  c1.343,0.146,2.548,0.806,3.394,1.859c1.854,2.307,2.139,7.75,2.079,10.679c-2.828-0.521-8-1.907-9.961-4.347  C28.036,35.823,27.651,34.504,27.797,33.162z"/><path d="M37.306,52.505c-1.543-0.365-2.909-0.508-4.244-0.441c-0.552,0.028-0.976,0.498-0.948,1.049  c0.028,0.552,0.508,0.99,1.05,0.948c1.146-0.055,2.324,0.069,3.684,0.39c0.077,0.019,0.154,0.027,0.23,0.027  c0.453,0,0.863-0.31,0.973-0.77C38.177,53.171,37.844,52.632,37.306,52.505z"/><path d="M59.438,61.063l-0.276-0.019c-1.009-0.078-2.117-0.315-3.386-0.723c-0.53-0.171-1.089,0.12-1.259,0.645  c-0.169,0.526,0.12,1.089,0.646,1.258c1.42,0.457,2.678,0.724,3.847,0.814l0.31,0.021c0.021,0.001,0.04,0.002,0.061,0.002  c0.524,0,0.966-0.409,0.997-0.94C60.41,61.57,59.99,61.096,59.438,61.063z"/><path d="M52.156,58.896c-1.116-0.5-2.237-1.044-3.579-1.706c-0.493-0.244-1.095-0.041-1.339,0.454  c-0.245,0.495-0.041,1.095,0.454,1.339c1.36,0.672,2.502,1.225,3.646,1.738c0.133,0.06,0.271,0.088,0.408,0.088  c0.382,0,0.747-0.22,0.913-0.591C52.886,59.714,52.66,59.123,52.156,58.896z"/><path d="M66.8,59.722c-1.211,0.501-2.431,0.869-3.624,1.093c-0.543,0.102-0.9,0.625-0.798,1.167c0.09,0.48,0.51,0.815,0.981,0.815  c0.061,0,0.123-0.005,0.186-0.017c1.329-0.25,2.682-0.657,4.021-1.211c0.51-0.211,0.752-0.796,0.541-1.306  C67.896,59.753,67.313,59.511,66.8,59.722z"/><path d="M68.39,10c-8.451,0-15.785,4.851-19.379,11.912l-8.252-10.579c-0.34-0.435-0.969-0.514-1.403-0.173L10.51,33.658  c-0.436,0.34-0.513,0.968-0.173,1.404l42.549,54.554C53.082,89.868,53.377,90,53.675,90c0.215,0,0.432-0.069,0.614-0.211  l28.847-22.498c0.209-0.163,0.345-0.403,0.377-0.666c0.033-0.263-0.041-0.528-0.204-0.738L73.201,52.928  c9.677-2.196,16.924-10.861,16.924-21.192C90.125,19.751,80.375,10,68.39,10z M39.797,13.352l8.292,10.63  c-0.924,2.41-1.435,5.023-1.435,7.754c0,3.382,0.777,6.585,2.161,9.442c-0.963,0.891-5.919,5.903-4.921,13.742  c-0.973-0.447-1.832-0.817-2.645-1.139c-0.508-0.203-1.094,0.047-1.298,0.561c-0.203,0.514,0.048,1.095,0.562,1.298  c1.057,0.419,2.2,0.924,3.599,1.59c0.084,0.04,0.172,0.043,0.259,0.059c0.138,0.513,0.294,1.032,0.485,1.564  c2.688,7.455,0.606,13.819-0.571,16.483L28.863,55.563c0.293-0.213,0.591-0.412,0.898-0.578c0.486-0.262,0.668-0.869,0.405-1.355  c-0.262-0.487-0.871-0.667-1.354-0.406c-0.406,0.219-0.796,0.482-1.177,0.763L12.528,34.62L39.797,13.352z M73.023,55.95  c-0.926,0.741-1.87,1.424-2.818,2.012c-0.469,0.291-0.613,0.907-0.322,1.376c0.189,0.306,0.516,0.473,0.851,0.473  c0.18,0,0.362-0.048,0.526-0.15c1.008-0.625,2.011-1.35,2.992-2.135l6.865,8.803l-27.27,21.268l-8.183-10.492  c1.12-2.148,4.406-9.683,1.072-18.931c-2.975-8.253,1.555-13.669,3.067-15.18c3.816,6.276,10.719,10.477,18.586,10.477  c0.872,0,1.731-0.058,2.576-0.158L73.023,55.95z M68.39,51.471c-10.882,0-19.735-8.853-19.735-19.735S57.508,12,68.39,12  s19.735,8.853,19.735,19.735S79.271,51.471,68.39,51.471z"/><path d="M68.39,14.059c-9.747,0-17.677,7.93-17.677,17.677c0,4.916,2.021,9.366,5.27,12.573c0.035,0.051,0.057,0.108,0.102,0.153  c0.073,0.073,0.161,0.119,0.248,0.164c3.162,2.959,7.395,4.787,12.057,4.787c9.747,0,17.677-7.93,17.677-17.677  S78.137,14.059,68.39,14.059z M56.8,21.216l1.63,1.63c0.195,0.195,0.451,0.293,0.707,0.293s0.512-0.098,0.707-0.293  c0.391-0.39,0.391-1.023,0-1.414l-1.614-1.614c2.524-2.155,5.735-3.512,9.256-3.714v2.299c0,0.552,0.447,1,1,1s1-0.448,1-1v-2.289  c3.636,0.254,6.927,1.748,9.463,4.068l-1.68,1.68c-0.391,0.391-0.391,1.024,0,1.414c0.195,0.195,0.451,0.293,0.707,0.293  s0.512-0.098,0.707-0.293l1.66-1.66c2.051,2.419,3.377,5.463,3.656,8.804h-2.221c-0.553,0-1,0.448-1,1s0.447,1,1,1h2.253  c-0.157,3.606-1.526,6.899-3.725,9.474l-1.43-1.43c-0.391-0.391-1.023-0.391-1.414,0s-0.391,1.024,0,1.414l1.446,1.446  c-2.53,2.299-5.806,3.779-9.423,4.032v-1.973c0-0.552-0.447-1-1-1s-1,0.448-1,1v1.983c-3.502-0.201-6.698-1.543-9.216-3.677  l1.335-1.335c0.391-0.391,0.391-1.024,0-1.414c-0.391-0.391-1.023-0.391-1.414,0l-1.355,1.355c-2.407-2.631-3.924-6.076-4.089-9.875  h2.113c0.553,0,1-0.448,1-1s-0.447-1-1-1H52.78C53.075,26.89,54.547,23.696,56.8,21.216z"/><path d="M62.17,39.21c0.155,0,0.312-0.036,0.457-0.11l8.348-4.286c0.186-0.096,0.337-0.247,0.433-0.433l4.286-8.348  c0.198-0.386,0.125-0.856-0.183-1.164c-0.308-0.308-0.779-0.38-1.164-0.183l-8.348,4.286c-0.186,0.096-0.337,0.247-0.433,0.433  l-4.286,8.347c-0.198,0.386-0.125,0.856,0.183,1.164C61.655,39.11,61.911,39.21,62.17,39.21z M67.199,30.606l5.294-2.718  l-2.719,5.294L64.48,35.9L67.199,30.606z"/><text x="0" y="115" fill="#000000" font-size="5px" font-weight="bold" font-family="'Helvetica Neue', Helvetica, Arial-Unicode, Arial, Sans-serif">Created by Made</text><text x="0" y="120" fill="#000000" font-size="5px" font-weight="bold" font-family="'Helvetica Neue', Helvetica, Arial-Unicode, Arial, Sans-serif">from the Noun Project</text></svg>