<svg xmlns="http://www.w3.org/2000/svg" xmlns:xlink="http://www.w3.org/1999/xlink" version="1.1" x="0px" y="0px" viewBox="0 0 349.482 335.49750000000006" style="enable-background:new 0 0 349.482 268.398;" xml:space="preserve"><g><path d="M174.668,201.193l1.537,2.704c2.301,4.053,6.529,6.328,10.881,6.328c2.092,0,4.213-0.526,6.162-1.633   c6.002-3.409,8.105-11.04,4.695-17.042l-1.152-2.031C192.592,194.946,181.549,200.365,174.668,201.193z"/><path d="M149.584,145.457c-3.115,4.71-3.32,10.771-0.533,15.681l21.051,37.07c2.762,4.864,30.178-7.61,26.086-14.814   l-16.506-29.066l5.967-9.023l-23.41-18.984L149.584,145.457z"/><path d="M73.725,228.181c-1.275-0.531-2.738,0.071-3.27,1.347c-0.531,1.275,0.074,2.738,1.35,3.27l17.016,7.089l211.488-41.847   c1.352-0.267,2.234-1.583,1.967-2.936c-0.268-1.355-1.582-2.235-2.938-1.969L89.342,234.688L73.725,228.181z"/><polygon points="322.441,238.398 349.482,206.399 349.482,198.392 0,261.453 9.441,268.398  "/><path d="M170.098,50.732c3.072,0,5.996,1.162,8.232,3.27c4.813,4.541,5.033,12.149,0.494,16.961L164.51,86.138   c3.184,6.465,6.244,13.472,8.289,20.59c0.248,0.86,0.473,1.722,0.689,2.584l-6.26,9.465l23.41,18.985l9.144-13.824   c0.129-0.195,0.232-0.398,0.352-0.596c1.131-0.648,2.213-1.382,3.223-2.218c4.26-3.532,7.189-8.906,6.664-17.56   c-3.059-21.353-7.859-33.068-19.793-49.696c-8.758-12.039-22.314-12.596-30.314-8.05c-1.947,1.106-3.455,2.669-4.557,4.513   c-0.08,2.798-0.855,5.445-2.199,7.688c-0.084,1.594,0.022,3.224,0.313,4.845l7.894-8.367   C163.623,52.105,166.807,50.732,170.098,50.732z"/><polygon points="237.783,185.005 231.984,191.886 235.809,195.109 241.607,188.228 247.725,193.384 250.947,189.561    244.83,184.404 250.631,177.523 246.807,174.3 241.006,181.182 137.221,97.019 127.125,95.268  "/><path d="M114.275,83.327c0.273-3.178,1.254-7.27,3.018-10.063l-4.35-0.755c-0.941-0.163-1.869-0.146-2.756,0.011   c-0.791,0.139-1.545,0.395-2.246,0.753l-7.328-5.942l-3.223,3.823l7.016,5.689c-0.311,0.628-0.541,1.307-0.68,2.027   c-0.01,0.052-0.025,0.101-0.035,0.153c-0.754,4.354,2.162,8.495,6.516,9.249l4.314,0.748   C114.174,87.455,114.084,85.544,114.275,83.327z"/><path d="M118.934,91.817l26.906,4.666c0.564,0.098,1.131,0.146,1.695,0.146c2.73,0,5.385-1.122,7.287-3.138l22.547-23.899   c3.789-4.017,3.605-10.345-0.412-14.134c-4.018-3.791-10.346-3.606-14.135,0.411l-18.859,19.988L122.35,72.11   C116.906,71.166,113.49,90.873,118.934,91.817z"/><path d="M218.109,111.837c-0.088,0.091-0.158,0.16-0.203,0.202c-0.045,0.045-0.055,0.051-0.055,0.051   c-0.42,0.36-0.469,0.991-0.111,1.41c0.197,0.231,0.479,0.35,0.762,0.35c0.23,0,0.461-0.079,0.65-0.239h-0.002   c0.064-0.081,2.461-2.043,2.502-5.311c0.006-1.581-0.639-3.383-2.285-5.139c-0.377-0.405-1.01-0.426-1.414-0.049   c-0.404,0.377-0.426,1.01-0.049,1.413c1.365,1.479,1.74,2.723,1.746,3.775c0.002,1.084-0.436,2.041-0.904,2.733   C218.514,111.379,218.279,111.653,218.109,111.837z"/><path d="M221.498,100.473c-0.391,0.393-0.387,1.025,0.006,1.416c2.443,2.437,3.139,4.616,3.146,6.477   c0.002,1.727-0.639,3.236-1.305,4.317c-0.33,0.539-0.66,0.97-0.906,1.258c-0.244,0.288-0.381,0.414-0.381,0.416   c-0.398,0.379-0.416,1.013-0.035,1.414c0.197,0.207,0.461,0.311,0.727,0.311c0.246,0,0.494-0.091,0.688-0.275v-0.002   c0.064-0.084,3.182-2.976,3.213-7.438c0.01-2.402-0.984-5.18-3.738-7.898C222.52,100.077,221.887,100.081,221.498,100.473z"/><path d="M137.494,151.027c0.248-0.184,0.383-0.251,0.379-0.255c0.482-0.27,0.654-0.878,0.385-1.361   c-0.27-0.481-0.879-0.654-1.361-0.384c-0.068,0.063-3.547,1.916-3.609,5.928c-0.002,1.287,0.396,2.736,1.355,4.278   c0.189,0.306,0.516,0.475,0.852,0.475c0.18,0,0.361-0.048,0.525-0.15c0.471-0.291,0.613-0.907,0.324-1.377   c-0.799-1.291-1.057-2.348-1.057-3.226c-0.002-1.335,0.617-2.361,1.287-3.099C136.908,151.491,137.246,151.21,137.494,151.027z"/><path d="M133.615,148.158c0.365-0.299,0.576-0.426,0.574-0.43c0.467-0.295,0.605-0.911,0.311-1.379   c-0.295-0.466-0.912-0.605-1.379-0.31h-0.002c-0.07,0.07-4.725,2.925-4.777,8.445c-0.002,1.989,0.646,4.255,2.297,6.7   c0.193,0.287,0.51,0.442,0.832,0.442c0.193,0,0.387-0.055,0.559-0.17c0.457-0.31,0.578-0.932,0.27-1.39   c-1.469-2.183-1.957-4.028-1.959-5.582c0-2.129,0.941-3.806,1.926-4.987C132.754,148.911,133.248,148.46,133.615,148.158z"/><path d="M189.578,34.72c-0.947-1.28-2.68-2.641-5.252-2.63c-0.836,0-1.75,0.138-2.744,0.444c-0.525,0.164-0.824,0.722-0.66,1.25   c0.162,0.528,0.723,0.823,1.25,0.662c0.826-0.255,1.537-0.356,2.154-0.356c1.857,0.013,2.92,0.885,3.656,1.836   c0.359,0.474,0.609,0.962,0.762,1.325c0.154,0.361,0.197,0.559,0.203,0.559c0.115,0.449,0.521,0.749,0.969,0.749   c0.082,0,0.166-0.01,0.25-0.032c0.533-0.14,0.855-0.686,0.719-1.221h-0.002C190.861,37.231,190.547,36.006,189.578,34.72z"/><path d="M192.463,34.151c0.266,0.544,0.359,0.864,0.363,0.864c0.135,0.427,0.529,0.699,0.953,0.699c0.1,0,0.201-0.015,0.303-0.046   c0.527-0.168,0.818-0.731,0.652-1.257c-0.027-0.075-0.564-1.773-2.008-3.528c-1.43-1.75-3.873-3.566-7.469-3.557   c-1.365,0-2.879,0.255-4.549,0.841c-0.52,0.183-0.793,0.754-0.611,1.274c0.184,0.52,0.754,0.796,1.275,0.614   c1.484-0.521,2.77-0.729,3.885-0.729c2.9,0.008,4.717,1.387,5.926,2.829C191.779,32.877,192.197,33.608,192.463,34.151z"/><path d="M123.455,38.492c-3.795,2.333-10.641,4.408-16.064,4.865c0.074,0.207,0.143,0.414,0.223,0.62   c3.602,9.309,12.719,14.852,22.174,14.347c-1.158-1.627-2.059-3.5-2.598-5.562L123.455,38.492z"/><path d="M123.627,34.846c-0.85-4.763-9.727-15.853-13.383-18.877c-0.994-0.822-2.125-1.424-3.283-1.784   c1.566,0.207,3.156,0.852,4.531,1.88c3.934,2.941,13.674,13.953,14.793,18.833c0.17,0.739-0.256,1.527-1.096,2.314l3.936,15.042   c1.906,7.289,8.773,11.804,15.338,10.087c6.34-1.659,10.063-8.529,8.592-15.564c2.408-4.368,9.674-20.072,0.611-37.037   c-7.018-13.135-29.568-11.232-40.234-4.552c-3.027,1.897-5.701,4.899-7.527,8.739c-0.74-0.13-1.477-0.152-2.188-0.061   c-1.953,0.251-3.693,1.364-4.652,3.568c-2.023,4.655-4.186,17.596-1.355,22.684c0.357,0.645,1.057,1.116,1.998,1.441   C106.203,43.801,124.367,39.007,123.627,34.846z"/><rect x="230.021" y="129.139" transform="matrix(0.9675 -0.253 0.253 0.9675 -25.017 66.2049)" width="29.808" height="2.482"/><rect x="234.397" y="146.261" transform="matrix(0.9675 -0.253 0.253 0.9675 -29.3028 67.1021)" width="23.786" height="2.482"/><rect x="225.403" y="135.491" transform="matrix(0.9675 -0.253 0.253 0.9675 -26.3276 68.7223)" width="57.301" height="2.483"/></g><text x="0" y="283.398" fill="#000000" font-size="5px" font-weight="bold" font-family="'Helvetica Neue', Helvetica, Arial-Unicode, Arial, Sans-serif">Created by Gan Khoon Lay</text><text x="0" y="288.398" fill="#000000" font-size="5px" font-weight="bold" font-family="'Helvetica Neue', Helvetica, Arial-Unicode, Arial, Sans-serif">from the Noun Project</text></svg>