<svg xmlns="http://www.w3.org/2000/svg" viewBox="0 0 192 512"><path d="M96 184c-39.765 0-72 32.235-72 72s32.235 72 72 72 72-32.235 72-72-32.235-72-72-72zm0 96c-13.234 0-24-10.766-24-24s10.766-24 24-24 24 10.766 24 24-10.766 24-24 24zm0 80c-39.765 0-72 32.235-72 72s32.235 72 72 72 72-32.235 72-72-32.235-72-72-72zm0 96c-13.234 0-24-10.766-24-24s10.766-24 24-24 24 10.766 24 24-10.766 24-24 24zm0-304c39.765 0 72-32.235 72-72S135.765 8 96 8 24 40.235 24 80s32.235 72 72 72zm0-96c13.234 0 24 10.766 24 24s-10.766 24-24 24-24-10.766-24-24 10.766-24 24-24z"/></svg>