<svg xmlns="http://www.w3.org/2000/svg" viewBox="0 0 512 512"><path d="M464 32H48C21.5 32 0 53.5 0 80v352c0 26.5 21.5 48 48 48h416c26.5 0 48-21.5 48-48V80c0-26.5-21.5-48-48-48zM256 88c0-13.3 10.7-24 24-24h16c13.3 0 24 10.7 24 24v16c0 13.3-10.7 24-24 24h-16c-13.3 0-24-10.7-24-24V88zm-96 0c0-13.3 10.7-24 24-24h16c13.3 0 24 10.7 24 24v16c0 13.3-10.7 24-24 24h-16c-13.3 0-24-10.7-24-24V88zm-96 0c0-13.3 10.7-24 24-24h16c13.3 0 24 10.7 24 24v16c0 13.3-10.7 24-24 24H88c-13.3 0-24-10.7-24-24V88zm400 338c0 3.3-2.7 6-6 6H54c-3.3 0-6-2.7-6-6V160h416v266z"/></svg>