<svg xmlns="http://www.w3.org/2000/svg" viewBox="0 0 512 512"><path d="M256 184c-39.765 0-72 32.235-72 72s32.235 72 72 72 72-32.235 72-72-32.235-72-72-72zm0 96c-13.234 0-24-10.766-24-24s10.766-24 24-24 24 10.766 24 24-10.766 24-24 24zm176-96c-39.765 0-72 32.235-72 72s32.235 72 72 72 72-32.235 72-72-32.235-72-72-72zm0 96c-13.234 0-24-10.766-24-24s10.766-24 24-24 24 10.766 24 24-10.766 24-24 24zM80 184c-39.765 0-72 32.235-72 72s32.235 72 72 72 72-32.235 72-72-32.235-72-72-72zm0 96c-13.234 0-24-10.766-24-24s10.766-24 24-24 24 10.766 24 24-10.766 24-24 24z"/></svg>